M48
;GenerationSoftware,Autodesk,EAGLE,9.6.2*%
;CreationDate,2022-01-11T14:51:47Z*%
FMAT,2
ICI,OFF
METRIC,TZ,000.000
T7C0.508
T6C1.000
T5C1.500
T4C1.700
T3C1.800
T2C2.200
T1C4.100
%
G90
M71
T1
X50000Y31000
X12000Y50000
X69000Y31000
X31000Y31000
X12000Y31000
X69000Y12000
X50000Y12000
X31000Y12000
X69000Y50000
X50000Y50000
X31000Y50000
X12000Y12000
T2
X59500Y83500
X21500Y83500
X21500Y44500
X59500Y44500
X59500Y3500
X21500Y3500
T3
X62650Y72000
X75350Y72000
X18350Y72000
X5650Y72000
T4
X6920Y12000
X74080Y31000
X36080Y50000
X25920Y50000
X6920Y50000
X55080Y50000
X44920Y50000
X17080Y50000
X74080Y50000
X63920Y50000
X63920Y31000
X36080Y12000
X25920Y12000
X17080Y12000
X55080Y12000
X44920Y12000
X44920Y31000
X74080Y12000
X63920Y12000
X55080Y31000
X17080Y31000
X6920Y31000
X25920Y31000
X36080Y31000
T5
X34810Y28460
X15810Y9460
X9460Y25920
X15810Y28460
X66460Y6920
X72810Y9460
X47460Y6920
X53810Y9460
X28460Y6920
X34810Y9460
X9460Y44920
X15810Y47460
X66460Y25920
X72810Y28460
X47460Y25920
X53810Y28460
X28460Y25920
X66460Y44920
X9460Y6920
X34810Y47460
X28460Y44920
X53810Y47460
X47460Y44920
X72810Y47460
T6
X14540Y79620
X71540Y79620
X66460Y64380
X14540Y64380
X71540Y64380
X9460Y79620
X9460Y64380
X69000Y79620
X12000Y79620
X66460Y79620
T7
X40234Y59944
X52832Y61366
X44704Y54864
X41656Y14834
X41453Y44704
X44704Y57506
X52832Y58928
X57912Y51206
X44704Y62179
X24790Y62586
X52832Y70917
X54966Y60554
X28448Y58725
X52832Y65634
X28245Y70104
X28448Y67462
X44704Y66040
X36982Y59944
X28448Y64821
X19101Y66243
X44704Y70104
M30