<?xml version="1.0" encoding="UTF-8"?><svg id="Layer_1" xmlns="http://www.w3.org/2000/svg" viewBox="0 0 480 160"><defs><style>.cls-1{fill:#999;}</style></defs><g><g><path class="cls-1" d="M192.48,122.72c-.88-1.66-2.08-2.96-3.66-3.85-1.58-.92-3.42-1.36-5.52-1.36s-3.92,.44-5.5,1.36c-1.56,.9-2.78,2.19-3.64,3.85-.88,1.69-1.31,3.68-1.31,6v.04c0,2.32,.44,4.31,1.29,6,.88,1.69,2.08,2.98,3.64,3.88,1.58,.9,3.42,1.36,5.54,1.36s3.96-.46,5.52-1.36c1.58-.9,2.78-2.17,3.64-3.85,.88-1.69,1.31-3.68,1.31-6.02v-.04c0-2.32-.44-4.34-1.31-6Zm-3.88,6.04c0,1.51-.22,2.8-.64,3.85-.44,1.07-1.05,1.88-1.84,2.45-.79,.55-1.71,.83-2.78,.83s-2.01-.28-2.8-.83c-.81-.57-1.42-1.38-1.86-2.45-.44-1.05-.66-2.34-.66-3.85v-.04c0-1.49,.22-2.78,.66-3.83,.44-1.07,1.05-1.88,1.86-2.43,.79-.57,1.71-.83,2.76-.83s2.01,.26,2.8,.83c.79,.55,1.4,1.36,1.84,2.43,.44,1.05,.66,2.34,.66,3.83v.04Z"/><path class="cls-1" d="M200.98,138.63c-1.56-.91-2.77-2.21-3.62-3.9-.85-1.69-1.27-3.69-1.27-6v-.02c0-2.3,.43-4.29,1.28-5.97,.86-1.68,2.06-2.97,3.62-3.89,1.56-.91,3.38-1.37,5.48-1.37,1.9,0,3.55,.36,4.94,1.09,1.39,.73,2.48,1.69,3.26,2.89,.79,1.2,1.24,2.52,1.35,3.96v.14h-4.77l-.04-.16c-.2-1.05-.7-1.94-1.48-2.68-.78-.74-1.85-1.11-3.19-1.11-1.06,0-1.99,.29-2.79,.87-.8,.58-1.41,1.4-1.85,2.46-.43,1.06-.65,2.33-.65,3.81v.02c0,1.5,.22,2.77,.66,3.84s1.06,1.87,1.86,2.44,1.73,.85,2.79,.85c1.29,0,2.34-.35,3.13-1.05,.8-.7,1.31-1.62,1.54-2.74l.04-.18h4.79l-.02,.14c-.14,1.5-.61,2.84-1.43,4.04-.82,1.2-1.91,2.15-3.28,2.85-1.37,.7-2.97,1.05-4.79,1.05-2.14,0-3.99-.45-5.55-1.37Z"/><path class="cls-1" d="M218.99,117.95h4.92v3.61h.12c.33-1.26,.94-2.26,1.84-2.98,.9-.72,1.99-1.08,3.26-1.08,.31,0,.61,.02,.9,.06,.29,.04,.53,.09,.71,.14v4.59c-.2-.08-.49-.15-.87-.2s-.78-.08-1.21-.08c-.95,0-1.77,.2-2.47,.59s-1.23,.96-1.59,1.68-.55,1.6-.55,2.62v12.67h-5.06v-21.62Z"/><path class="cls-1" d="M251.99,128.37c0-2.17-.42-4.07-1.23-5.72-.81-1.62-1.97-2.89-3.46-3.79-1.51-.92-3.29-1.36-5.34-1.36s-3.85,.46-5.37,1.4-2.69,2.26-3.53,3.94c-.83,1.69-1.27,3.68-1.27,5.96v.02c0,2.28,.42,4.25,1.25,5.94,.83,1.66,2.04,2.96,3.59,3.88,1.56,.9,3.42,1.36,5.56,1.36,1.4,0,2.67-.2,3.77-.57s2.06-.88,2.85-1.51c.81-.64,1.45-1.36,1.93-2.15,.46-.81,.79-1.62,.99-2.45l.02-.22h-4.73l-.04,.15c-.15,.48-.44,.94-.85,1.36s-.94,.77-1.58,1.03c-.66,.26-1.38,.39-2.23,.39-1.12,0-2.1-.24-2.91-.74-.81-.48-1.45-1.2-1.88-2.15-.42-.85-.66-1.91-.66-3.13h15.13v-1.64Zm-15.09-1.75c.11-.85,.31-1.6,.61-2.26,.44-.96,1.05-1.69,1.84-2.17,.77-.48,1.66-.72,2.67-.72s1.86,.24,2.63,.7c.77,.48,1.36,1.18,1.8,2.12,.31,.66,.5,1.42,.59,2.32h-10.14Z"/><path class="cls-1" d="M274.44,128.37c0-2.17-.39-4.07-1.2-5.72-.81-1.62-1.97-2.89-3.48-3.79-1.49-.92-3.26-1.36-5.32-1.36s-3.85,.46-5.39,1.4c-1.51,.94-2.67,2.26-3.53,3.94-.83,1.69-1.25,3.68-1.25,5.96v.02c0,2.28,.42,4.25,1.25,5.94,.83,1.66,2.01,2.96,3.57,3.88,1.56,.9,3.42,1.36,5.58,1.36,1.4,0,2.65-.2,3.75-.57,1.12-.37,2.06-.88,2.87-1.51,.79-.64,1.45-1.36,1.91-2.15,.48-.81,.81-1.62,.99-2.45l.04-.22h-4.73l-.04,.15c-.15,.48-.46,.94-.85,1.36-.44,.42-.96,.77-1.6,1.03-.64,.26-1.38,.39-2.21,.39-1.14,0-2.1-.24-2.91-.74-.83-.48-1.45-1.2-1.91-2.15-.42-.85-.64-1.91-.64-3.13h15.11v-1.64Zm-15.07-1.75c.09-.85,.28-1.6,.59-2.26,.46-.96,1.07-1.69,1.84-2.17,.79-.48,1.69-.72,2.69-.72s1.86,.24,2.63,.7c.77,.48,1.36,1.18,1.8,2.12,.31,.66,.5,1.42,.59,2.32h-10.14Z"/><path class="cls-1" d="M297.39,122.72c-.74-1.66-1.77-2.96-3.11-3.85-1.34-.92-2.89-1.36-4.71-1.36-1.53,0-2.89,.35-4.07,1.1-1.18,.74-2.08,1.77-2.69,3.07h-.11v-11.54h-5.08v29.44h5.08v-3.66h.11c.61,1.27,1.51,2.28,2.67,3,1.16,.72,2.5,1.1,4.05,1.1,1.84,0,3.42-.46,4.77-1.36,1.34-.9,2.37-2.19,3.09-3.88,.72-1.69,1.1-3.7,1.1-6v-.02c0-2.32-.37-4.34-1.1-6.02Zm-4.1,6.04c0,1.42-.2,2.65-.61,3.7-.44,1.05-1.03,1.86-1.84,2.43-.79,.55-1.73,.83-2.83,.83s-1.97-.28-2.76-.85c-.81-.57-1.45-1.38-1.91-2.43-.44-1.03-.68-2.28-.68-3.68v-.02c0-1.42,.24-2.65,.7-3.68,.46-1.05,1.1-1.86,1.88-2.43,.79-.57,1.71-.85,2.76-.85s2.04,.28,2.83,.85,1.4,1.36,1.82,2.39c.44,1.03,.64,2.28,.64,3.72v.02Z"/></g><g><polygon class="cls-1" points="310.94 118.27 310.89 118.27 307.16 120.82 307.16 118.22 310.93 115.58 313.8 115.58 313.8 130.16 310.94 130.16 310.94 118.27"/><path class="cls-1" d="M327.16,127.84v2.32h-10.47v-1.99l5.15-4.88c.64-.59,1.12-1.1,1.45-1.49s.55-.77,.68-1.07c.11-.31,.18-.66,.18-.99v-.02c0-.42-.11-.77-.28-1.1-.2-.31-.46-.57-.81-.74-.35-.18-.74-.28-1.18-.28-.5,0-.96,.11-1.36,.33-.39,.2-.7,.48-.92,.83-.22,.35-.35,.77-.35,1.2v.09h-2.69v-.09c0-.9,.22-1.69,.68-2.39,.46-.7,1.1-1.25,1.91-1.64s1.71-.59,2.72-.59,1.91,.18,2.67,.53c.77,.37,1.36,.88,1.8,1.51,.44,.64,.64,1.36,.64,2.17v.02c0,.59-.09,1.14-.31,1.62-.2,.5-.55,1.05-1.05,1.62-.48,.57-1.14,1.25-1.99,2.04l-3.11,2.89v.11h6.68Z"/></g><rect class="cls-1" x="307.16" y="137.06" width="20" height="2.59"/></g><g><g><path class="cls-1" d="M198.07,77.97l-3.48,3.48,3.48,3.5c.5,.5,.5,1.31,0,1.82-.24,.26-.57,.37-.92,.37-.33,0-.66-.11-.9-.37l-4.4-4.4c-.5-.5-.5-1.34,0-1.84l4.4-4.4c.5-.5,1.31-.5,1.82,0s.5,1.34,0,1.84Z"/><path class="cls-1" d="M205.95,61.83h-21.99c-4.75,0-8.63,3.88-8.63,8.63v21.99c0,4.75,3.88,8.63,8.63,8.63h21.99c4.75,0,8.63-3.88,8.63-8.63v-21.99c0-4.75-3.88-8.63-8.63-8.63Zm6.04,30.62c0,3.33-2.72,6.04-6.04,6.04h-21.99c-3.33,0-6.04-2.72-6.04-6.04v-21.99c0-3.33,2.72-6.04,6.04-6.04h21.99c3.33,0,6.04,2.72,6.04,6.04v21.99Z"/><path class="cls-1" d="M198.07,84.96c.5,.5,.5,1.31,0,1.82-.24,.26-.57,.37-.92,.37-.33,0-.66-.11-.9-.37l-4.4-4.4c-.5-.5-.5-1.34,0-1.84l4.4-4.4c.5-.5,1.31-.5,1.82,0s.5,1.34,0,1.84l-3.48,3.48,3.48,3.5Z"/></g><g><path class="cls-1" d="M242.26,78.46c.5,.5,.5,1.34,0,1.84l-4.4,4.4c-.24,.24-.57,.37-.92,.37s-.68-.13-.92-.37l-4.4-4.4c-.5-.5-.5-1.34,0-1.84,.5-.5,1.34-.5,1.84,0l3.48,3.5,3.5-3.5c.5-.5,1.31-.5,1.82,0Z"/><path class="cls-1" d="M247.94,61.96h-21.99c-4.75,0-8.63,3.85-8.63,8.61v22.01c0,4.75,3.88,8.63,8.63,8.63h21.99c4.75,0,8.63-3.88,8.63-8.63v-22.01c0-4.75-3.88-8.61-8.63-8.61Zm6.04,30.62c0,3.33-2.72,6.02-6.04,6.02h-21.99c-3.33,0-6.04-2.69-6.04-6.02v-22.01c0-3.33,2.72-6.02,6.04-6.02h21.99c3.33,0,6.04,2.69,6.04,6.02v22.01Z"/><path class="cls-1" d="M242.26,80.3l-4.4,4.4c-.24,.24-.57,.37-.92,.37s-.68-.13-.92-.37l-4.4-4.4c-.5-.5-.5-1.34,0-1.84,.5-.5,1.34-.5,1.84,0l3.48,3.5,3.5-3.5c.5-.5,1.31-.5,1.82,0s.5,1.34,0,1.84Z"/></g><g><path class="cls-1" d="M242.26,40.92c.5,.5,.5,1.31,0,1.82-.24,.26-.57,.39-.92,.39-.33,0-.66-.13-.9-.39l-3.5-3.48-3.48,3.48c-.5,.53-1.34,.53-1.84,0-.5-.5-.5-1.31,0-1.82l4.4-4.4c.5-.48,1.36-.48,1.84,0l4.4,4.4Z"/><path class="cls-1" d="M247.94,20h-21.99c-4.75,0-8.63,3.88-8.63,8.63v21.99c0,4.75,3.88,8.63,8.63,8.63h21.99c4.75,0,8.63-3.88,8.63-8.63V28.63c0-4.75-3.88-8.63-8.63-8.63Zm6.04,30.62c0,3.33-2.72,6.04-6.04,6.04h-21.99c-3.33,0-6.04-2.72-6.04-6.04V28.63c0-3.33,2.72-6.04,6.04-6.04h21.99c3.33,0,6.04,2.72,6.04,6.04v21.99Z"/><path class="cls-1" d="M242.26,42.73c-.24,.26-.57,.39-.92,.39-.33,0-.66-.13-.9-.39l-3.5-3.48-3.48,3.48c-.5,.53-1.34,.53-1.84,0-.5-.5-.5-1.31,0-1.82l4.4-4.4c.5-.48,1.36-.48,1.84,0l4.4,4.4c.5,.5,.5,1.31,0,1.82Z"/></g><g><path class="cls-1" d="M281.91,80.54c.5,.5,.5,1.34,0,1.84l-4.42,4.4c-.24,.26-.57,.37-.9,.37s-.68-.11-.92-.37c-.5-.5-.5-1.31,0-1.82l3.48-3.5-3.48-3.48c-.5-.5-.5-1.34,0-1.84,.5-.5,1.31-.5,1.82,0l4.42,4.4Z"/><path class="cls-1" d="M289.77,61.83h-21.99c-4.75,0-8.63,3.88-8.63,8.63v21.99c0,4.75,3.88,8.63,8.63,8.63h21.99c4.77,0,8.63-3.88,8.63-8.63v-21.99c0-4.75-3.85-8.63-8.63-8.63Zm6.04,30.62c0,3.33-2.72,6.04-6.04,6.04h-21.99c-3.33,0-6.04-2.72-6.04-6.04v-21.99c0-3.33,2.72-6.04,6.04-6.04h21.99c3.33,0,6.04,2.72,6.04,6.04v21.99Z"/><path class="cls-1" d="M281.91,82.38l-4.42,4.4c-.24,.26-.57,.37-.9,.37s-.68-.11-.92-.37c-.5-.5-.5-1.31,0-1.82l3.48-3.5-3.48-3.48c-.5-.5-.5-1.34,0-1.84,.5-.5,1.31-.5,1.82,0l4.42,4.4c.5,.5,.5,1.34,0,1.84Z"/></g></g></svg>