<?xml version="1.0" encoding="UTF-8"?><svg id="Layer_1" xmlns="http://www.w3.org/2000/svg" viewBox="0 0 480 480"><defs><style>.cls-1,.cls-2{fill:#999;}.cls-3{fill:#39b54a;stroke:#006837;}.cls-3,.cls-4{stroke-miterlimit:10;stroke-width:2px;}.cls-2{font-family:Inter-Medium, Inter;font-size:18px;font-variation-settings:'wght' 500, 'slnt' 0;font-weight:500;}.cls-4{fill:none;stroke:#999;}</style></defs><g><polygon class="cls-4" points="119.36 152.92 359.47 152.92 371.56 166.72 371.56 421.64 359.07 433.73 120.57 433.73 108.88 422.05 108.88 165.41 119.36 152.92"/><circle class="cls-4" cx="326.24" cy="210.58" r="24.58"/><circle class="cls-4" cx="154.57" cy="210.58" r="24.58"/><polyline class="cls-4" points="108.88 165.41 116.94 174.68 362.29 174.68 370.91 166.07"/><polyline class="cls-4" points="359.47 152.92 362.29 174.68 362.29 418.55 355.98 424.87 125.81 424.87 117.65 416.71 116.94 174.68 119.36 152.92"/><rect class="cls-3" x="300.79" y="249.65" width="50.88" height="50.88" rx="8.01" ry="8.01"/><rect class="cls-4" x="243.28" y="249.65" width="50.88" height="50.88" rx="8.01" ry="8.01"/><rect class="cls-4" x="185.77" y="249.65" width="50.88" height="50.88" rx="8.01" ry="8.01"/><rect class="cls-4" x="128.26" y="249.65" width="50.88" height="50.88" rx="8.01" ry="8.01"/><rect class="cls-4" x="300.79" y="306.97" width="50.88" height="50.88" rx="8.01" ry="8.01"/><rect class="cls-4" x="243.28" y="306.97" width="50.88" height="50.88" rx="8.01" ry="8.01"/><rect class="cls-4" x="185.77" y="306.97" width="50.88" height="50.88" rx="8.01" ry="8.01"/><rect class="cls-4" x="128.26" y="306.97" width="50.88" height="50.88" rx="8.01" ry="8.01"/><rect class="cls-4" x="300.79" y="364.29" width="50.88" height="50.88" rx="8.01" ry="8.01"/><rect class="cls-4" x="243.28" y="364.29" width="50.88" height="50.88" rx="8.01" ry="8.01"/><rect class="cls-4" x="185.77" y="364.29" width="50.88" height="50.88" rx="8.01" ry="8.01"/><rect class="cls-4" x="128.26" y="364.29" width="50.88" height="50.88" rx="8.01" ry="8.01"/><line class="cls-4" x1="362.29" y1="418.55" x2="371.56" y2="421.64"/><line class="cls-4" x1="355.98" y1="424.87" x2="359.07" y2="433.73"/><line class="cls-4" x1="108.88" y1="422.05" x2="117.65" y2="416.71"/><line class="cls-4" x1="125.81" y1="424.87" x2="120.57" y2="433.73"/></g><g><g><path class="cls-4" d="M229.35,83.64h21.3c3.05,0,5.53,2.48,5.53,5.53v28.19c0,.9-.73,1.62-1.62,1.62h-29.12c-.9,0-1.62-.73-1.62-1.62v-28.19c0-3.05,2.48-5.53,5.53-5.53Z"/><path class="cls-4" d="M235.98,68.88h8.04c.89,0,1.61,.72,1.61,1.61v13.04c0,.06-.05,.12-.12,.12h-11.02c-.06,0-.12-.05-.12-.12v-13.04c0-.89,.72-1.61,1.61-1.61Z"/><rect class="cls-4" x="229.63" y="118.99" width="20.75" height="13.92"/></g><g><line class="cls-4" x1="236.9" y1="26.26" x2="236.9" y2="68.88"/><line class="cls-4" x1="243.1" y1="26.26" x2="243.1" y2="68.88"/></g></g><g><line class="cls-4" x1="394.29" y1="275.1" x2="452.98" y2="275.1"/><polygon class="cls-1" points="400.92 283.28 402.28 281.81 395.06 275.1 402.28 268.38 400.92 266.92 392.12 275.1 400.92 283.28"/></g><g><line class="cls-4" x1="185.77" y1="87.49" x2="185.77" y2="28.8"/><polygon class="cls-1" points="193.95 80.86 192.49 79.5 185.78 86.72 179.06 79.5 177.6 80.86 185.78 89.66 193.95 80.86"/></g><circle class="cls-4" cx="151.66" cy="54.53" r="16.36"/><text class="cls-2" transform="translate(146.3 60.14)"><tspan x="0" y="0">2</tspan></text><g><circle class="cls-4" cx="426.93" cy="238.72" r="16.36"/><text class="cls-2" transform="translate(422.55 245.09)"><tspan x="0" y="0">1</tspan></text></g></svg>