<?xml version="1.0" encoding="UTF-8"?><svg id="Layer_1" xmlns="http://www.w3.org/2000/svg" viewBox="0 0 480 480"><defs><style>.cls-1{font-size:18px;}.cls-1,.cls-2{fill:#999;font-family:Inter-Medium, Inter;font-variation-settings:'wght' 500, 'slnt' 0;font-weight:500;}.cls-2{font-size:12px;}.cls-3{stroke-width:2px;}.cls-3,.cls-4{fill:none;stroke:#999;stroke-miterlimit:10;}</style></defs><g><circle class="cls-3" cx="326.27" cy="149.99" r="24.58"/><circle class="cls-3" cx="154.6" cy="149.99" r="24.58"/><rect class="cls-3" x="300.82" y="189.07" width="50.88" height="50.88" rx="8.01" ry="8.01"/><rect class="cls-3" x="243.31" y="189.07" width="50.88" height="50.88" rx="8.01" ry="8.01"/><rect class="cls-3" x="185.8" y="189.07" width="50.88" height="50.88" rx="8.01" ry="8.01"/><rect class="cls-3" x="128.29" y="189.07" width="50.88" height="50.88" rx="8.01" ry="8.01"/><rect class="cls-3" x="300.82" y="246.38" width="50.88" height="50.88" rx="8.01" ry="8.01"/><rect class="cls-3" x="243.31" y="246.38" width="50.88" height="50.88" rx="8.01" ry="8.01"/><rect class="cls-3" x="185.8" y="246.38" width="50.88" height="50.88" rx="8.01" ry="8.01"/><rect class="cls-3" x="128.29" y="246.38" width="50.88" height="50.88" rx="8.01" ry="8.01"/><rect class="cls-3" x="300.82" y="303.7" width="50.88" height="50.88" rx="8.01" ry="8.01"/><rect class="cls-3" x="243.31" y="303.7" width="50.88" height="50.88" rx="8.01" ry="8.01"/><rect class="cls-3" x="185.8" y="303.7" width="50.88" height="50.88" rx="8.01" ry="8.01"/><rect class="cls-3" x="128.29" y="303.7" width="50.88" height="50.88" rx="8.01" ry="8.01"/></g><text class="cls-1" transform="translate(149.55 335.82)"><tspan x="0" y="0">1</tspan></text><text class="cls-1" transform="translate(205.73 335.82)"><tspan x="0" y="0">2</tspan></text><text class="cls-1" transform="translate(262.96 335.82)"><tspan x="0" y="0">3</tspan></text><text class="cls-2" transform="translate(194.2 422.1)"><tspan x="0" y="0">Default Keymap</tspan></text><text class="cls-1" transform="translate(320.27 335.82)"><tspan x="0" y="0">+</tspan></text><text class="cls-1" transform="translate(147.91 278.37)"><tspan x="0" y="0">4</tspan></text><text class="cls-1" transform="translate(205.66 278.37)"><tspan x="0" y="0">5</tspan></text><text class="cls-1" transform="translate(263.03 278.37)"><tspan x="0" y="0">6</tspan></text><text class="cls-1" transform="translate(322.1 278.37)"><tspan x="0" y="0">-</tspan></text><text class="cls-1" transform="translate(148.59 220.92)"><tspan x="0" y="0">7</tspan></text><text class="cls-1" transform="translate(205.56 220.92)"><tspan x="0" y="0">8</tspan></text><text class="cls-1" transform="translate(263.03 220.92)"><tspan x="0" y="0">9</tspan></text><text class="cls-1" transform="translate(321.57 220.92)"><tspan x="0" y="0">*</tspan></text><rect class="cls-4" x="178.09" y="406.79" width="122.73" height="22.99" rx="11.49" ry="11.49"/><g><g><text class="cls-2" transform="translate(27.93 134.83)"><tspan x="0" y="0">Volume Up</tspan><tspan x="-16.5" y="18">Volume Down</tspan><tspan x="32.83" y="36">Mute</tspan></text><text class="cls-2" transform="translate(99 134.83)"><tspan x="0" y="0">↻ </tspan><tspan x="0" y="18">↺</tspan><tspan x="0" y="36">↓</tspan></text></g><g><text class="cls-2" transform="translate(390.62 134.83)"><tspan x="0" y="0">RGB Hue</tspan><tspan x="0" y="18">RGB Hue</tspan><tspan x="0" y="36">RGB On/Off</tspan></text><text class="cls-2" transform="translate(371.72 134.83)"><tspan x="0" y="0">↻ </tspan><tspan x="0" y="18">↺</tspan><tspan x="0" y="36">↓</tspan></text></g></g></svg>