<?xml version="1.0" encoding="UTF-8"?><svg id="Layer_1" xmlns="http://www.w3.org/2000/svg" viewBox="0 0 900 420"><defs><style>.cls-1{fill:#999;}.cls-2{stroke-width:2px;}.cls-2,.cls-3{fill:none;stroke:#999;stroke-miterlimit:10;}</style></defs><g><circle class="cls-2" cx="536.27" cy="91.41" r="24.58"/><circle class="cls-2" cx="364.6" cy="91.41" r="24.58"/><rect class="cls-2" x="510.82" y="130.48" width="50.88" height="50.88" rx="8.01" ry="8.01"/><rect class="cls-2" x="453.31" y="130.48" width="50.88" height="50.88" rx="8.01" ry="8.01"/><rect class="cls-2" x="395.8" y="130.48" width="50.88" height="50.88" rx="8.01" ry="8.01"/><rect class="cls-2" x="338.29" y="130.48" width="50.88" height="50.88" rx="8.01" ry="8.01"/><rect class="cls-2" x="510.82" y="187.8" width="50.88" height="50.88" rx="8.01" ry="8.01"/><rect class="cls-2" x="453.31" y="187.8" width="50.88" height="50.88" rx="8.01" ry="8.01"/><rect class="cls-2" x="395.8" y="187.8" width="50.88" height="50.88" rx="8.01" ry="8.01"/><rect class="cls-2" x="338.29" y="187.8" width="50.88" height="50.88" rx="8.01" ry="8.01"/><rect class="cls-2" x="510.82" y="245.11" width="50.88" height="50.88" rx="8.01" ry="8.01"/><rect class="cls-2" x="453.31" y="245.11" width="50.88" height="50.88" rx="8.01" ry="8.01"/><rect class="cls-2" x="395.8" y="245.11" width="50.88" height="50.88" rx="8.01" ry="8.01"/><rect class="cls-2" x="338.29" y="245.11" width="50.88" height="50.88" rx="8.01" ry="8.01"/></g><path class="cls-1" d="M365.77,264.14v13.09h-1.98v-11.11h-.08l-3.13,2.05v-1.89l3.27-2.13h1.92Z"/><path class="cls-1" d="M416.98,277.23v-1.43l4.43-4.59c.47-.5,.86-.94,1.17-1.31s.54-.74,.69-1.08c.15-.34,.23-.7,.23-1.09,0-.43-.1-.81-.31-1.13s-.48-.56-.84-.74c-.35-.17-.75-.26-1.2-.26-.47,0-.88,.1-1.23,.29s-.62,.46-.81,.81c-.19,.35-.28,.76-.28,1.23h-1.89c0-.8,.18-1.49,.55-2.09,.37-.6,.87-1.06,1.51-1.39s1.37-.5,2.18-.5,1.55,.16,2.18,.49c.63,.33,1.12,.77,1.47,1.33,.35,.56,.53,1.19,.53,1.9,0,.49-.09,.96-.27,1.42-.18,.46-.5,.98-.94,1.55-.45,.57-1.07,1.26-1.87,2.07l-2.6,2.72v.1h5.89v1.69h-8.62Z"/><path class="cls-1" d="M478.78,277.41c-.88,0-1.66-.15-2.35-.45-.69-.3-1.23-.72-1.63-1.26s-.61-1.16-.64-1.88h2.01c.03,.39,.16,.72,.39,1.01,.24,.28,.55,.5,.93,.66,.38,.15,.81,.23,1.28,.23,.51,0,.97-.09,1.37-.27,.4-.18,.71-.43,.94-.75,.23-.32,.34-.69,.34-1.12s-.11-.83-.33-1.16-.55-.6-.98-.79c-.43-.19-.94-.29-1.55-.29h-1.11v-1.61h1.11c.49,0,.91-.09,1.28-.26,.37-.17,.66-.42,.87-.73s.31-.68,.31-1.1-.09-.76-.27-1.06c-.18-.3-.44-.54-.77-.71-.33-.17-.72-.26-1.17-.26s-.82,.08-1.19,.23c-.37,.16-.67,.38-.9,.67-.23,.29-.35,.63-.37,1.03h-1.91c.02-.71,.23-1.33,.63-1.87s.93-.96,1.58-1.26c.66-.3,1.39-.45,2.19-.45s1.56,.16,2.18,.49c.61,.33,1.08,.76,1.42,1.3,.33,.54,.5,1.13,.5,1.78,0,.73-.2,1.36-.61,1.87-.41,.51-.96,.85-1.64,1.03v.1c.87,.13,1.54,.48,2.02,1.04,.48,.56,.72,1.25,.71,2.08,0,.72-.2,1.37-.6,1.94-.4,.57-.95,1.02-1.65,1.35-.69,.33-1.49,.49-2.38,.49Z"/><g><path class="cls-1" d="M407.98,363.52h-2.83v-8.73h2.91c.85,0,1.59,.17,2.2,.52s1.08,.85,1.41,1.5c.33,.65,.49,1.43,.49,2.33s-.17,1.69-.5,2.34c-.33,.65-.81,1.16-1.43,1.51s-1.38,.53-2.27,.53Zm-1.51-1.15h1.44c.67,0,1.22-.13,1.66-.38,.44-.25,.77-.62,.99-1.1s.33-1.06,.33-1.75-.11-1.27-.33-1.74c-.22-.48-.54-.84-.97-1.09-.43-.25-.96-.37-1.6-.37h-1.52v6.43Z"/><path class="cls-1" d="M416.54,363.65c-.65,0-1.2-.14-1.66-.42-.46-.28-.82-.67-1.07-1.17-.25-.5-.38-1.1-.38-1.78s.13-1.26,.38-1.77,.6-.91,1.06-1.2,.98-.43,1.59-.43c.37,0,.73,.06,1.07,.18,.35,.12,.66,.31,.93,.58,.28,.26,.49,.6,.65,1.02s.24,.92,.24,1.51v.45h-5.2v-.95h3.95c0-.33-.07-.63-.2-.89s-.33-.46-.57-.62c-.25-.15-.53-.23-.86-.23-.36,0-.67,.09-.94,.26s-.47,.4-.61,.68c-.14,.28-.21,.58-.21,.91v.75c0,.44,.08,.81,.23,1.12s.37,.54,.65,.7,.6,.24,.98,.24c.24,0,.46-.03,.66-.1,.2-.07,.37-.17,.52-.31,.14-.14,.26-.31,.33-.52l1.21,.22c-.1,.36-.27,.67-.52,.93s-.56,.47-.93,.62c-.37,.15-.8,.22-1.28,.22Z"/><path class="cls-1" d="M423.88,356.97v1.02h-3.7v-1.02h3.7Zm-2.68,6.55v-7.3c0-.41,.09-.75,.27-1.02,.18-.27,.42-.47,.71-.61s.62-.2,.96-.2c.26,0,.47,.02,.66,.06,.18,.04,.32,.08,.4,.11l-.3,1.03c-.06-.02-.14-.04-.23-.06s-.21-.04-.34-.04c-.31,0-.53,.08-.66,.23-.13,.15-.2,.38-.2,.66v7.13h-1.27Z"/><path class="cls-1" d="M426.89,363.66c-.41,0-.79-.08-1.12-.23-.33-.16-.6-.38-.79-.68-.19-.3-.29-.66-.29-1.09,0-.37,.07-.67,.21-.91,.14-.24,.33-.43,.58-.57,.24-.14,.51-.24,.81-.32,.3-.07,.6-.12,.91-.16,.39-.04,.71-.08,.95-.11,.24-.03,.42-.08,.53-.15s.17-.18,.17-.33v-.03c0-.37-.1-.66-.31-.87-.21-.2-.52-.31-.93-.31s-.77,.09-1.01,.28c-.25,.19-.42,.4-.51,.63l-1.2-.27c.14-.4,.35-.72,.62-.97,.27-.25,.59-.42,.95-.54s.73-.17,1.13-.17c.26,0,.54,.03,.83,.09s.57,.17,.83,.33c.26,.16,.47,.39,.63,.69,.17,.3,.25,.69,.25,1.17v4.35h-1.24v-.89h-.05c-.08,.16-.21,.33-.37,.49-.16,.16-.38,.29-.63,.4-.26,.1-.57,.16-.93,.16Zm.28-1.02c.35,0,.65-.07,.91-.21,.25-.14,.44-.32,.58-.55,.13-.23,.2-.47,.2-.73v-.84s-.13,.09-.26,.12c-.13,.04-.28,.07-.44,.1-.16,.03-.33,.05-.48,.07s-.29,.04-.39,.05c-.25,.03-.47,.08-.68,.16s-.37,.18-.49,.32c-.12,.14-.18,.32-.18,.55,0,.32,.12,.55,.35,.71,.23,.16,.53,.24,.89,.24Z"/><path class="cls-1" d="M435.96,360.8v-3.83h1.28v6.55h-1.25v-1.13h-.07c-.15,.35-.39,.64-.72,.87s-.74,.35-1.23,.35c-.42,0-.79-.09-1.11-.28-.32-.19-.58-.46-.76-.83-.18-.37-.27-.82-.27-1.36v-4.16h1.27v4.01c0,.45,.12,.8,.37,1.07,.25,.26,.57,.4,.96,.4,.24,0,.48-.06,.71-.18s.43-.3,.59-.54,.24-.55,.23-.92Z"/><path class="cls-1" d="M440.23,354.79v8.73h-1.27v-8.73h1.27Z"/><path class="cls-1" d="M444.99,356.97v1.02h-3.58v-1.02h3.58Zm-2.62-1.57h1.27v6.19c0,.25,.04,.43,.11,.56,.07,.12,.17,.21,.29,.25,.12,.04,.25,.07,.39,.07,.1,0,.19,0,.27-.02,.08-.01,.14-.03,.18-.03l.23,1.05c-.07,.03-.18,.06-.32,.09-.14,.03-.31,.05-.51,.05-.34,0-.65-.05-.94-.18-.29-.12-.52-.32-.7-.58-.18-.26-.27-.59-.27-.98v-6.46Z"/><path class="cls-1" d="M449.68,363.52v-8.73h1.32v4.17h.11l3.66-4.17h1.66l-3.52,3.93,3.53,4.8h-1.58l-2.82-3.9-1.03,1.18v2.71h-1.32Z"/><path class="cls-1" d="M459.9,363.65c-.65,0-1.2-.14-1.66-.42-.46-.28-.82-.67-1.07-1.17-.25-.5-.38-1.1-.38-1.78s.12-1.26,.38-1.77c.25-.51,.6-.91,1.06-1.2s.98-.43,1.59-.43c.37,0,.73,.06,1.07,.18,.35,.12,.66,.31,.93,.58s.49,.6,.65,1.02,.24,.92,.24,1.51v.45h-5.2v-.95h3.96c0-.33-.07-.63-.21-.89-.14-.26-.33-.46-.57-.62-.25-.15-.53-.23-.86-.23-.36,0-.67,.09-.94,.26s-.47,.4-.61,.68c-.14,.28-.21,.58-.21,.91v.75c0,.44,.08,.81,.23,1.12,.15,.31,.37,.54,.65,.7s.6,.24,.98,.24c.24,0,.46-.03,.66-.1,.2-.07,.37-.17,.52-.31,.14-.14,.26-.31,.33-.52l1.21,.22c-.1,.36-.27,.67-.52,.93-.25,.27-.56,.47-.93,.62-.37,.15-.8,.22-1.28,.22Z"/><path class="cls-1" d="M464.73,365.95c-.19,0-.36-.01-.52-.04-.16-.03-.27-.06-.35-.1l.31-1.04c.35,.1,.64,.1,.88,.02s.44-.33,.6-.76l.16-.43-2.4-6.63h1.36l1.66,5.08h.07l1.66-5.08h1.38s-2.71,7.42-2.71,7.42c-.12,.34-.28,.62-.48,.86-.19,.23-.42,.41-.69,.53-.27,.12-.58,.18-.93,.18Z"/><path class="cls-1" d="M470.73,363.52v-6.55h1.22v1.07h.08c.14-.36,.36-.64,.67-.85s.68-.3,1.11-.3,.8,.1,1.1,.31c.3,.21,.52,.49,.66,.84h.07c.16-.35,.4-.63,.75-.84s.75-.31,1.22-.31c.59,0,1.08,.19,1.46,.56,.38,.37,.57,.93,.57,1.68v4.39h-1.27v-4.27c0-.44-.12-.76-.36-.96-.24-.2-.53-.3-.87-.3-.42,0-.74,.13-.97,.38-.23,.25-.35,.58-.35,.98v4.17h-1.27v-4.35c0-.36-.11-.64-.33-.86-.22-.22-.51-.32-.86-.32-.24,0-.46,.06-.67,.19-.2,.13-.37,.3-.49,.53-.12,.22-.19,.48-.19,.78v4.04h-1.27Z"/><path class="cls-1" d="M483.24,363.66c-.41,0-.79-.08-1.12-.23-.33-.16-.6-.38-.79-.68-.2-.3-.29-.66-.29-1.09,0-.37,.07-.67,.21-.91,.14-.24,.33-.43,.58-.57,.24-.14,.51-.24,.81-.32s.6-.12,.91-.16c.39-.04,.71-.08,.95-.11,.24-.03,.42-.08,.53-.15,.11-.07,.17-.18,.17-.33v-.03c0-.37-.1-.66-.31-.87-.21-.2-.52-.31-.93-.31s-.77,.09-1.01,.28c-.25,.19-.42,.4-.51,.63l-1.2-.27c.14-.4,.35-.72,.62-.97,.27-.25,.59-.42,.95-.54,.36-.11,.73-.17,1.13-.17,.26,0,.54,.03,.83,.09s.57,.17,.83,.33c.26,.16,.47,.39,.63,.69s.25,.69,.25,1.17v4.35h-1.24v-.89h-.05c-.08,.16-.21,.33-.37,.49s-.38,.29-.63,.4c-.26,.1-.57,.16-.93,.16Zm.28-1.02c.35,0,.65-.07,.91-.21,.25-.14,.44-.32,.58-.55,.13-.23,.2-.47,.2-.73v-.84s-.13,.09-.26,.12c-.13,.04-.28,.07-.44,.1-.16,.03-.33,.05-.48,.07s-.29,.04-.39,.05c-.25,.03-.47,.08-.68,.16s-.37,.18-.49,.32c-.12,.14-.18,.32-.18,.55,0,.32,.12,.55,.35,.71,.23,.16,.53,.24,.89,.24Z"/><path class="cls-1" d="M488.17,365.97v-9h1.24v1.06h.11c.07-.14,.18-.29,.32-.47,.14-.18,.33-.34,.58-.47,.25-.13,.57-.2,.98-.2,.53,0,1,.13,1.42,.4,.42,.27,.74,.65,.98,1.16s.36,1.11,.36,1.82-.12,1.31-.35,1.82c-.24,.5-.56,.89-.97,1.16s-.88,.41-1.41,.41c-.4,0-.72-.07-.97-.2-.25-.13-.45-.29-.59-.47-.14-.18-.25-.34-.33-.48h-.08v3.47h-1.27Zm1.25-5.73c0,.46,.07,.86,.2,1.21,.13,.35,.33,.62,.58,.81,.25,.2,.56,.29,.93,.29s.7-.1,.96-.3c.25-.2,.45-.48,.58-.83,.13-.35,.2-.74,.2-1.18s-.06-.82-.19-1.16c-.13-.34-.32-.61-.58-.81s-.58-.3-.96-.3-.68,.09-.94,.29c-.25,.19-.45,.46-.58,.8s-.2,.74-.2,1.19Z"/></g><path class="cls-1" d="M531.95,272.94v-1.72h8.64v1.72h-8.64Zm3.46,3.46v-8.64h1.72v8.64h-1.72Z"/><path class="cls-1" d="M358.9,217.23v-1.6l5.66-8.94h1.26v2.35h-.8l-4.05,6.4v.1h7.75v1.67h-9.82Zm6.21,2.56v-3.77s.01-9.32,.01-9.32h1.87v13.09h-1.89Z"/><path class="cls-1" d="M421.24,219.96c-.8,0-1.52-.15-2.16-.46-.64-.31-1.15-.73-1.52-1.28s-.58-1.16-.61-1.85h1.92c.05,.56,.3,1.02,.75,1.39s.99,.54,1.62,.54c.5,0,.95-.12,1.34-.35,.39-.23,.7-.55,.92-.96s.34-.88,.34-1.4-.11-1.01-.35-1.42c-.23-.42-.55-.75-.95-.98-.4-.24-.86-.36-1.38-.37-.4,0-.79,.07-1.2,.21s-.72,.32-.97,.54l-1.81-.27,.73-6.6h7.2v1.69h-5.55l-.42,3.66h.08c.26-.25,.6-.45,1.02-.62,.42-.17,.88-.25,1.36-.25,.8,0,1.51,.19,2.13,.57,.62,.38,1.12,.9,1.48,1.55,.36,.65,.54,1.41,.53,2.25,0,.85-.19,1.6-.57,2.27-.39,.66-.92,1.19-1.6,1.57-.68,.38-1.46,.57-2.34,.57Z"/><path class="cls-1" d="M478.86,219.96c-.58,0-1.16-.12-1.72-.32s-1.08-.55-1.54-1.02c-.46-.48-.83-1.12-1.1-1.92-.28-.81-.41-1.81-.41-3.02s.11-2.17,.34-3.06c.23-.89,.56-1.65,.99-2.26,.43-.61,.95-1.08,1.56-1.4s1.29-.48,2.05-.48,1.47,.16,2.08,.47c.6,.31,1.1,.74,1.47,1.28,.38,.54,.62,1.16,.72,1.87h-1.95c-.13-.56-.39-1.01-.79-1.36-.39-.35-.9-.52-1.53-.52-.96,0-1.71,.42-2.24,1.26-.53,.84-.8,2.01-.81,3.51h.1c.23-.37,.5-.69,.83-.95,.33-.26,.7-.46,1.11-.61,.41-.14,.85-.21,1.3-.21,.76,0,1.45,.18,2.06,.55,.62,.37,1.11,.88,1.47,1.52,.37,.65,.55,1.39,.55,2.22s-.19,1.59-.57,2.27-.91,1.21-1.59,1.61-1.48,.59-2.39,.58Zm0-1.66c.5,0,.95-.12,1.35-.37s.71-.58,.94-1c.23-.42,.34-.88,.34-1.4s-.11-.96-.33-1.37-.53-.74-.92-.98-.83-.36-1.33-.36c-.38,0-.73,.07-1.05,.22-.32,.15-.6,.35-.85,.6-.24,.26-.43,.55-.57,.88-.14,.33-.21,.68-.21,1.04,0,.49,.11,.94,.34,1.36,.23,.42,.54,.75,.94,1.01s.85,.38,1.35,.38Z"/><path class="cls-1" d="M539.17,213.42v1.66h-5.8v-1.66h5.8Z"/><path class="cls-1" d="M360.29,162.34l5.71-11.3v-.1h-6.61v-1.69h8.66v1.75l-5.7,11.34h-2.06Z"/><path class="cls-1" d="M421.25,162.52c-.92,0-1.73-.16-2.43-.47-.7-.32-1.25-.75-1.65-1.3-.4-.55-.59-1.18-.59-1.89,0-.55,.11-1.06,.34-1.53,.23-.47,.55-.86,.95-1.17,.4-.31,.85-.51,1.34-.6v-.08c-.65-.16-1.17-.51-1.57-1.05s-.59-1.16-.58-1.87c0-.67,.17-1.27,.53-1.79,.36-.53,.85-.94,1.49-1.24,.63-.3,1.35-.45,2.15-.45s1.51,.15,2.14,.46c.63,.3,1.12,.72,1.49,1.25s.55,1.12,.55,1.79c0,.7-.2,1.33-.6,1.87-.4,.54-.91,.89-1.55,1.05v.08c.49,.08,.93,.28,1.33,.6,.39,.31,.71,.7,.95,1.17,.24,.47,.36,.98,.36,1.53,0,.71-.2,1.34-.6,1.89-.4,.55-.95,.99-1.65,1.3-.7,.32-1.51,.47-2.41,.47Zm0-1.62c.54,0,1.01-.09,1.41-.27,.4-.18,.7-.43,.92-.76s.33-.71,.33-1.15c0-.46-.12-.86-.35-1.21s-.55-.62-.94-.82c-.4-.2-.85-.3-1.36-.3s-.97,.1-1.37,.3c-.4,.2-.72,.47-.95,.82s-.34,.75-.34,1.21c0,.44,.1,.82,.32,1.15s.52,.58,.92,.76c.4,.18,.87,.27,1.42,.27Zm0-6.09c.43,0,.82-.09,1.16-.26,.34-.17,.6-.42,.8-.73,.19-.31,.29-.68,.3-1.09,0-.41-.1-.77-.29-1.07s-.45-.54-.79-.71c-.34-.17-.73-.25-1.17-.25s-.85,.08-1.19,.25c-.34,.17-.6,.41-.79,.71s-.28,.67-.27,1.07c0,.42,.09,.78,.28,1.09,.19,.31,.46,.55,.8,.73,.34,.17,.73,.26,1.17,.26Z"/><path class="cls-1" d="M478.65,149.03c.58,0,1.16,.11,1.73,.32s1.08,.55,1.54,1.03c.46,.47,.82,1.12,1.1,1.92,.27,.8,.41,1.81,.42,3.02,0,1.15-.12,2.17-.35,3.06-.23,.89-.56,1.65-.99,2.26-.43,.61-.95,1.08-1.56,1.4-.61,.32-1.29,.48-2.06,.48s-1.47-.15-2.08-.46c-.6-.31-1.1-.73-1.48-1.28-.38-.54-.62-1.17-.71-1.88h1.95c.13,.56,.39,1.02,.78,1.37,.39,.35,.9,.52,1.53,.52,.96,0,1.71-.42,2.24-1.26,.54-.84,.81-2.01,.81-3.51h-.1c-.22,.37-.5,.68-.83,.95-.33,.26-.7,.47-1.11,.61-.41,.15-.85,.22-1.31,.22-.75,0-1.44-.19-2.06-.56-.62-.37-1.11-.88-1.48-1.53-.36-.65-.55-1.39-.55-2.22s.19-1.59,.57-2.27c.38-.68,.91-1.21,1.58-1.6,.68-.39,1.48-.59,2.39-.58Zm0,1.66c-.5,0-.95,.12-1.35,.37s-.71,.58-.94,1c-.23,.42-.35,.88-.35,1.4s.11,.97,.34,1.38,.53,.74,.92,.98c.39,.24,.84,.36,1.34,.36,.38,0,.72-.07,1.05-.22,.32-.15,.61-.35,.85-.6,.24-.26,.43-.55,.57-.88s.21-.68,.21-1.04c0-.49-.11-.94-.34-1.36-.23-.42-.54-.75-.94-1.01-.4-.25-.85-.38-1.36-.38Z"/><path class="cls-1" d="M535.57,156.61l.12-2.7-2.28,1.46-.7-1.21,2.42-1.23-2.42-1.23,.7-1.21,2.28,1.46-.12-2.7h1.39l-.12,2.7,2.28-1.46,.7,1.21-2.42,1.23,2.42,1.23-.7,1.21-2.28-1.46,.12,2.7h-1.39Z"/><rect class="cls-3" x="388.09" y="348.2" width="122.73" height="22.99" rx="11.49" ry="11.49"/><g><g><g><path class="cls-1" d="M239.65,67.51l2.43,7.11h.1l2.43-7.11h1.42l-3.14,8.73h-1.52l-3.14-8.73h1.42Z"/><path class="cls-1" d="M249.29,76.37c-.61,0-1.15-.14-1.61-.42-.46-.28-.81-.67-1.07-1.18s-.38-1.1-.38-1.77,.13-1.27,.38-1.78c.25-.51,.61-.9,1.07-1.18,.46-.28,.99-.42,1.61-.42s1.15,.14,1.61,.42,.81,.68,1.07,1.18c.25,.51,.38,1.1,.38,1.78s-.13,1.27-.38,1.77c-.25,.5-.61,.9-1.07,1.18s-.99,.42-1.61,.42Zm0-1.07c.4,0,.73-.11,.99-.32s.46-.49,.58-.84c.13-.35,.19-.73,.19-1.15s-.06-.8-.19-1.15c-.13-.35-.32-.63-.58-.85-.26-.21-.59-.32-.99-.32s-.73,.11-.99,.32c-.26,.21-.46,.5-.58,.85-.13,.35-.19,.73-.19,1.15s.06,.81,.19,1.15c.13,.35,.32,.63,.58,.84,.26,.21,.59,.32,.99,.32Z"/><path class="cls-1" d="M255.03,67.51v8.73h-1.27v-8.73h1.27Z"/><path class="cls-1" d="M260.89,73.53v-3.83h1.28v6.55h-1.25v-1.13h-.07c-.15,.35-.39,.64-.72,.87s-.74,.35-1.23,.35c-.42,0-.79-.09-1.11-.28-.32-.19-.58-.46-.76-.83-.18-.37-.27-.82-.27-1.36v-4.16h1.27v4.01c0,.45,.12,.8,.37,1.07,.25,.26,.57,.4,.96,.4,.24,0,.48-.06,.71-.18s.43-.3,.59-.54,.24-.55,.23-.92Z"/><path class="cls-1" d="M263.88,76.24v-6.55h1.22v1.07h.08c.14-.36,.36-.64,.67-.85s.68-.3,1.11-.3,.8,.1,1.1,.31c.3,.21,.52,.49,.66,.84h.07c.16-.35,.4-.63,.75-.84s.75-.31,1.22-.31c.59,0,1.08,.19,1.46,.56s.56,.93,.56,1.68v4.39h-1.27v-4.27c0-.44-.12-.76-.36-.96-.24-.2-.53-.3-.86-.3-.42,0-.74,.13-.97,.38-.23,.25-.35,.58-.35,.98v4.17h-1.27v-4.35c0-.36-.11-.64-.33-.86-.22-.22-.51-.32-.86-.32-.24,0-.46,.06-.67,.19-.2,.13-.37,.3-.49,.53s-.19,.48-.19,.78v4.04h-1.27Z"/><path class="cls-1" d="M277.3,76.37c-.65,0-1.2-.14-1.66-.42-.46-.28-.82-.67-1.07-1.17-.25-.5-.38-1.1-.38-1.78s.13-1.26,.38-1.77,.6-.91,1.06-1.2,.98-.43,1.59-.43c.37,0,.73,.06,1.07,.18,.35,.12,.66,.31,.93,.58,.28,.26,.49,.6,.65,1.02s.24,.92,.24,1.51v.45h-5.2v-.95h3.95c0-.33-.07-.63-.2-.89s-.33-.46-.57-.62c-.25-.15-.53-.23-.86-.23-.36,0-.67,.09-.94,.26s-.47,.4-.61,.68c-.14,.28-.21,.58-.21,.91v.75c0,.44,.08,.81,.23,1.12s.37,.54,.65,.7,.6,.24,.98,.24c.24,0,.46-.03,.66-.1,.2-.07,.37-.17,.52-.31,.14-.14,.26-.31,.33-.52l1.21,.22c-.1,.36-.27,.67-.52,.93s-.56,.47-.93,.62c-.37,.15-.8,.22-1.28,.22Z"/><path class="cls-1" d="M290.42,67.51h1.32v5.74c0,.61-.14,1.15-.43,1.62-.29,.47-.69,.84-1.21,1.11s-1.13,.4-1.83,.4-1.3-.13-1.82-.4c-.52-.27-.92-.64-1.21-1.11-.29-.47-.43-1.01-.43-1.62v-5.74h1.32v5.63c0,.39,.09,.75,.26,1.05s.42,.55,.74,.72c.32,.17,.7,.26,1.14,.26s.83-.09,1.15-.26c.32-.17,.57-.42,.74-.72s.26-.66,.26-1.05v-5.63Z"/><path class="cls-1" d="M293.56,78.7v-9h1.24v1.06h.11c.07-.14,.18-.29,.32-.47,.14-.18,.33-.34,.58-.47,.25-.13,.57-.2,.98-.2,.53,0,1,.13,1.42,.4,.41,.27,.74,.65,.98,1.16s.36,1.11,.36,1.82-.12,1.31-.35,1.82-.56,.89-.97,1.16c-.41,.27-.88,.41-1.41,.41-.4,0-.72-.07-.97-.2-.25-.13-.45-.29-.59-.47s-.25-.34-.33-.48h-.08v3.47h-1.27Zm1.25-5.73c0,.46,.07,.86,.2,1.21,.13,.35,.33,.62,.58,.81,.25,.2,.56,.29,.93,.29s.7-.1,.95-.3c.26-.2,.45-.48,.58-.83,.13-.35,.2-.74,.2-1.18s-.06-.82-.19-1.16c-.13-.34-.32-.61-.58-.81-.26-.2-.58-.3-.96-.3s-.68,.09-.94,.29-.45,.46-.58,.8c-.13,.34-.2,.74-.2,1.19Z"/><path class="cls-1" d="M223.16,85.51l2.43,7.11h.1l2.43-7.11h1.42l-3.14,8.73h-1.52l-3.14-8.73h1.42Z"/><path class="cls-1" d="M232.79,94.37c-.61,0-1.15-.14-1.61-.42-.46-.28-.81-.67-1.07-1.18s-.38-1.1-.38-1.77,.13-1.27,.38-1.78c.25-.51,.61-.9,1.07-1.18,.46-.28,.99-.42,1.61-.42s1.15,.14,1.61,.42,.81,.68,1.07,1.18c.25,.51,.38,1.1,.38,1.78s-.13,1.27-.38,1.77c-.25,.5-.61,.9-1.07,1.18s-.99,.42-1.61,.42Zm0-1.07c.4,0,.73-.11,.99-.32s.46-.49,.58-.84c.13-.35,.19-.73,.19-1.15s-.06-.8-.19-1.15c-.13-.35-.32-.63-.58-.85-.26-.21-.59-.32-.99-.32s-.73,.11-.99,.32c-.26,.21-.46,.5-.58,.85-.13,.35-.19,.73-.19,1.15s.06,.81,.19,1.15c.13,.35,.32,.63,.58,.84,.26,.21,.59,.32,.99,.32Z"/><path class="cls-1" d="M238.54,85.51v8.73h-1.27v-8.73h1.27Z"/><path class="cls-1" d="M244.4,91.53v-3.83h1.28v6.55h-1.25v-1.13h-.07c-.15,.35-.39,.64-.72,.87s-.74,.35-1.23,.35c-.42,0-.79-.09-1.11-.28-.32-.19-.58-.46-.76-.83-.18-.37-.27-.82-.27-1.36v-4.16h1.27v4.01c0,.45,.12,.8,.37,1.07,.25,.26,.57,.4,.96,.4,.24,0,.48-.06,.71-.18s.43-.3,.59-.54,.24-.55,.23-.92Z"/><path class="cls-1" d="M247.38,94.24v-6.55h1.22v1.07h.08c.14-.36,.36-.64,.67-.85s.68-.3,1.11-.3,.8,.1,1.1,.31c.3,.21,.52,.49,.66,.84h.07c.16-.35,.4-.63,.75-.84s.75-.31,1.22-.31c.59,0,1.08,.19,1.46,.56s.56,.93,.56,1.68v4.39h-1.27v-4.27c0-.44-.12-.76-.36-.96-.24-.2-.53-.3-.86-.3-.42,0-.74,.13-.97,.38-.23,.25-.35,.58-.35,.98v4.17h-1.27v-4.35c0-.36-.11-.64-.33-.86-.22-.22-.51-.32-.86-.32-.24,0-.46,.06-.67,.19-.2,.13-.37,.3-.49,.53s-.19,.48-.19,.78v4.04h-1.27Z"/><path class="cls-1" d="M260.81,94.37c-.65,0-1.2-.14-1.66-.42-.46-.28-.82-.67-1.07-1.17-.25-.5-.38-1.1-.38-1.78s.13-1.26,.38-1.77,.6-.91,1.06-1.2,.98-.43,1.59-.43c.37,0,.73,.06,1.07,.18,.35,.12,.66,.31,.93,.58,.28,.26,.49,.6,.65,1.02s.24,.92,.24,1.51v.45h-5.2v-.95h3.95c0-.33-.07-.63-.2-.89s-.33-.46-.57-.62c-.25-.15-.53-.23-.86-.23-.36,0-.67,.09-.94,.26s-.47,.4-.61,.68c-.14,.28-.21,.58-.21,.91v.75c0,.44,.08,.81,.23,1.12s.37,.54,.65,.7,.6,.24,.98,.24c.24,0,.46-.03,.66-.1,.2-.07,.37-.17,.52-.31,.14-.14,.26-.31,.33-.52l1.21,.22c-.1,.36-.27,.67-.52,.93s-.56,.47-.93,.62c-.37,.15-.8,.22-1.28,.22Z"/><path class="cls-1" d="M271.14,94.24h-2.83v-8.73h2.91c.85,0,1.59,.17,2.2,.52s1.08,.85,1.41,1.5c.33,.65,.49,1.43,.49,2.33s-.17,1.69-.5,2.34c-.33,.65-.81,1.16-1.43,1.51s-1.38,.53-2.27,.53Zm-1.51-1.15h1.44c.67,0,1.22-.13,1.66-.38,.44-.25,.77-.62,.99-1.1s.33-1.06,.33-1.75-.11-1.27-.33-1.74c-.22-.48-.54-.84-.97-1.09-.43-.25-.96-.37-1.6-.37h-1.52v6.43Z"/><path class="cls-1" d="M279.63,94.37c-.61,0-1.15-.14-1.61-.42-.46-.28-.81-.67-1.07-1.18s-.38-1.1-.38-1.77,.13-1.27,.38-1.78c.25-.51,.61-.9,1.07-1.18,.46-.28,.99-.42,1.61-.42s1.15,.14,1.61,.42,.81,.68,1.07,1.18c.25,.51,.38,1.1,.38,1.78s-.13,1.27-.38,1.77c-.25,.5-.61,.9-1.07,1.18s-.99,.42-1.61,.42Zm0-1.07c.4,0,.73-.11,.99-.32s.46-.49,.58-.84c.13-.35,.19-.73,.19-1.15s-.06-.8-.19-1.15c-.13-.35-.32-.63-.58-.85-.26-.21-.59-.32-.99-.32s-.73,.11-.99,.32c-.26,.21-.46,.5-.58,.85-.13,.35-.19,.73-.19,1.15s.06,.81,.19,1.15c.13,.35,.32,.63,.58,.84,.26,.21,.59,.32,.99,.32Z"/><path class="cls-1" d="M285.32,94.24l-1.93-6.55h1.32l1.28,4.81h.06l1.29-4.81h1.32l1.28,4.79h.06l1.27-4.79h1.32l-1.92,6.55h-1.3l-1.33-4.73h-.1l-1.33,4.73h-1.3Z"/><path class="cls-1" d="M295.07,90.36v3.89h-1.27v-6.55h1.22v1.07h.08c.15-.35,.39-.62,.71-.83,.32-.21,.73-.32,1.22-.32,.45,0,.84,.09,1.17,.28,.34,.19,.6,.46,.78,.83,.18,.37,.28,.82,.28,1.36v4.16h-1.27v-4.01c0-.47-.12-.85-.37-1.11s-.59-.4-1.02-.4c-.3,0-.56,.06-.79,.19-.23,.13-.41,.31-.54,.56-.13,.25-.2,.54-.2,.89Z"/><path class="cls-1" d="M271.72,103.51h1.6l2.78,6.78h.1l2.78-6.78h1.6v8.73h-1.25v-6.32h-.08l-2.57,6.3h-1.04l-2.57-6.31h-.08v6.32h-1.25v-8.73Z"/><path class="cls-1" d="M286.54,109.53v-3.83h1.28v6.55h-1.25v-1.13h-.07c-.15,.35-.39,.64-.72,.87s-.74,.35-1.23,.35c-.42,0-.79-.09-1.11-.28-.32-.19-.58-.46-.76-.83-.18-.37-.27-.82-.27-1.36v-4.16h1.27v4.01c0,.45,.12,.8,.37,1.07,.25,.26,.57,.4,.96,.4,.24,0,.48-.06,.71-.18s.43-.3,.59-.54,.24-.55,.23-.92Z"/><path class="cls-1" d="M292.58,105.7v1.02h-3.58v-1.02h3.58Zm-2.62-1.57h1.27v6.19c0,.25,.04,.43,.11,.56,.07,.12,.17,.21,.29,.25,.12,.04,.25,.07,.39,.07,.1,0,.19,0,.27-.02,.08-.01,.14-.03,.18-.03l.23,1.05c-.07,.03-.18,.06-.32,.09-.14,.03-.31,.05-.51,.05-.34,0-.65-.05-.94-.18-.29-.12-.52-.32-.7-.58-.18-.26-.27-.59-.27-.98v-6.46Z"/><path class="cls-1" d="M296.74,112.37c-.65,0-1.2-.14-1.66-.42-.46-.28-.82-.67-1.07-1.17-.25-.5-.38-1.1-.38-1.78s.13-1.26,.38-1.77,.6-.91,1.06-1.2,.98-.43,1.59-.43c.37,0,.73,.06,1.07,.18,.35,.12,.66,.31,.93,.58,.28,.26,.49,.6,.65,1.02s.24,.92,.24,1.51v.45h-5.2v-.95h3.95c0-.33-.07-.63-.2-.89s-.33-.46-.57-.62c-.25-.15-.53-.23-.86-.23-.36,0-.67,.09-.94,.26s-.47,.4-.61,.68c-.14,.28-.21,.58-.21,.91v.75c0,.44,.08,.81,.23,1.12s.37,.54,.65,.7,.6,.24,.98,.24c.24,0,.46-.03,.66-.1,.2-.07,.37-.17,.52-.31,.14-.14,.26-.31,.33-.52l1.21,.22c-.1,.36-.27,.67-.52,.93s-.56,.47-.93,.62c-.37,.15-.8,.22-1.28,.22Z"/></g><g><path class="cls-1" d="M314.73,76.24c-.6,0-1.17-.11-1.7-.34-.53-.23-.99-.54-1.39-.94-.4-.4-.71-.86-.94-1.39-.22-.53-.34-1.09-.34-1.69s.11-1.17,.34-1.69c.23-.53,.54-.99,.94-1.39,.4-.4,.86-.71,1.39-.94,.53-.23,1.09-.34,1.7-.34v1.1c-.45,0-.87,.08-1.27,.25s-.74,.4-1.04,.7c-.3,.3-.53,.64-.7,1.04-.17,.39-.25,.82-.25,1.27s.08,.87,.25,1.27,.4,.74,.7,1.04c.3,.3,.65,.53,1.04,.7,.39,.17,.82,.25,1.27,.25s.87-.08,1.27-.25,.74-.4,1.04-.7c.3-.3,.53-.64,.7-1.04,.17-.4,.25-.82,.25-1.27h1.1c0,.6-.11,1.17-.34,1.69-.23,.53-.54,.99-.94,1.39s-.86,.71-1.39,.94c-.53,.23-1.09,.34-1.69,.34Zm-.25-5.45v-5.3l2.67,2.65-2.67,2.65Z"/><path class="cls-1" d="M314.73,86.62v-1.1c.61,0,1.17,.11,1.7,.34s.99,.54,1.39,.94c.4,.4,.71,.87,.94,1.39,.23,.53,.34,1.09,.34,1.69s-.11,1.17-.34,1.69c-.22,.53-.54,.99-.94,1.39-.4,.4-.86,.71-1.39,.94s-1.09,.34-1.7,.34-1.17-.11-1.69-.34c-.53-.23-.99-.54-1.39-.94s-.71-.86-.94-1.39c-.23-.53-.34-1.09-.34-1.69h1.1c0,.45,.08,.87,.25,1.27,.17,.39,.4,.74,.7,1.04,.3,.3,.65,.53,1.04,.7,.4,.17,.82,.25,1.27,.25s.88-.08,1.27-.25,.74-.4,1.04-.7c.3-.3,.53-.64,.7-1.04s.25-.82,.25-1.27-.08-.88-.25-1.27c-.17-.39-.4-.74-.7-1.04-.3-.3-.64-.53-1.04-.7s-.82-.25-1.27-.25Zm.25,2.18l-2.67-2.65,2.67-2.65v5.3Z"/><path class="cls-1" d="M315.28,103.51v6.7l2.55-2.56,.78,.77-3.88,3.87-3.87-3.87,.76-.77,2.56,2.56v-6.7h1.11Z"/></g></g><g><g><path class="cls-1" d="M601.58,76.24v-8.73h3.11c.68,0,1.24,.12,1.68,.35,.45,.23,.78,.55,1,.96,.22,.41,.33,.88,.33,1.42s-.11,1-.33,1.41c-.22,.4-.56,.72-1.01,.94-.45,.22-1.01,.34-1.69,.34h-2.36v-1.13h2.24c.43,0,.77-.06,1.04-.18s.46-.3,.59-.53c.12-.23,.19-.51,.19-.84s-.06-.62-.19-.86c-.13-.24-.32-.43-.59-.56-.27-.13-.62-.19-1.05-.19h-1.65v7.6h-1.32Zm4.31-3.94l2.16,3.94h-1.5l-2.11-3.94h1.46Z"/><path class="cls-1" d="M615.23,70.27c-.08-.26-.19-.49-.33-.7s-.3-.38-.49-.53-.41-.26-.65-.33c-.24-.08-.51-.11-.8-.11-.49,0-.93,.13-1.33,.38-.39,.25-.71,.62-.94,1.11-.23,.49-.34,1.08-.34,1.79s.12,1.31,.35,1.79c.23,.49,.54,.86,.95,1.11,.4,.25,.86,.38,1.37,.38,.47,0,.89-.1,1.24-.29s.63-.47,.82-.82c.2-.35,.29-.77,.29-1.25l.34,.06h-2.5v-1.09h3.43v.99c0,.73-.16,1.37-.47,1.91-.31,.54-.74,.95-1.29,1.25-.55,.29-1.17,.44-1.88,.44-.79,0-1.48-.18-2.08-.54-.6-.36-1.06-.88-1.39-1.55-.33-.67-.5-1.46-.5-2.38,0-.7,.1-1.32,.29-1.88s.47-1.02,.82-1.41c.35-.39,.76-.68,1.24-.89,.48-.21,1-.31,1.56-.31,.47,0,.91,.07,1.32,.21,.41,.14,.77,.34,1.09,.59,.32,.26,.58,.56,.79,.91,.21,.35,.35,.74,.43,1.17h-1.35Z"/><path class="cls-1" d="M618.31,76.24v-8.73h3.2c.62,0,1.13,.1,1.54,.3s.71,.48,.91,.82c.2,.35,.3,.73,.3,1.17,0,.36-.07,.67-.2,.92-.13,.25-.31,.45-.54,.6-.22,.15-.47,.26-.73,.33v.08c.29,.01,.57,.11,.85,.28,.28,.17,.51,.42,.69,.73,.18,.32,.27,.7,.27,1.15s-.1,.85-.31,1.2c-.21,.35-.53,.63-.97,.84s-.99,.31-1.67,.31h-3.34Zm1.32-4.95h1.76c.3,0,.56-.06,.8-.17s.43-.27,.57-.48,.21-.45,.21-.73c0-.36-.13-.66-.38-.91s-.64-.37-1.16-.37h-1.8v2.65Zm0,3.82h1.9c.63,0,1.08-.12,1.36-.37,.27-.24,.41-.55,.41-.92,0-.28-.07-.53-.21-.76-.14-.23-.34-.41-.59-.55-.26-.14-.56-.21-.91-.21h-1.95v2.8Z"/><path class="cls-1" d="M629.34,76.24v-8.73h1.32v3.79h4.35v-3.79h1.32v8.73h-1.32v-3.81h-4.35v3.81h-1.32Z"/><path class="cls-1" d="M642.29,73.53v-3.83h1.28v6.55h-1.25v-1.13h-.07c-.15,.35-.39,.64-.72,.87s-.74,.35-1.23,.35c-.42,0-.79-.09-1.11-.28-.32-.19-.58-.46-.76-.83-.18-.37-.27-.82-.27-1.36v-4.16h1.27v4.01c0,.45,.12,.8,.37,1.07,.25,.26,.57,.4,.96,.4,.24,0,.48-.06,.71-.18s.43-.3,.59-.54c.16-.24,.24-.55,.23-.92Z"/><path class="cls-1" d="M648.1,76.37c-.64,0-1.2-.14-1.66-.42-.46-.28-.82-.67-1.07-1.17-.25-.5-.38-1.1-.38-1.78s.13-1.26,.38-1.77c.25-.51,.6-.91,1.06-1.2s.98-.43,1.59-.43c.37,0,.73,.06,1.07,.18s.66,.31,.93,.58c.28,.26,.49,.6,.65,1.02s.24,.92,.24,1.51v.45h-5.2v-.95h3.95c0-.33-.07-.63-.2-.89-.14-.26-.33-.46-.57-.62-.25-.15-.53-.23-.86-.23-.36,0-.67,.09-.94,.26s-.47,.4-.61,.68c-.14,.28-.21,.58-.21,.91v.75c0,.44,.08,.81,.23,1.12,.16,.31,.37,.54,.65,.7s.6,.24,.98,.24c.24,0,.46-.03,.66-.1,.2-.07,.37-.17,.52-.31,.14-.14,.25-.31,.33-.52l1.21,.22c-.1,.36-.27,.67-.52,.93-.25,.27-.56,.47-.93,.62-.37,.15-.8,.22-1.28,.22Z"/><path class="cls-1" d="M601.58,94.24v-8.73h3.11c.68,0,1.24,.12,1.68,.35,.45,.23,.78,.55,1,.96,.22,.41,.33,.88,.33,1.42s-.11,1-.33,1.41c-.22,.4-.56,.72-1.01,.94-.45,.22-1.01,.34-1.69,.34h-2.36v-1.13h2.24c.43,0,.77-.06,1.04-.18s.46-.3,.59-.53c.12-.23,.19-.51,.19-.84s-.06-.62-.19-.86c-.13-.24-.32-.43-.59-.56-.27-.13-.62-.19-1.05-.19h-1.65v7.6h-1.32Zm4.31-3.94l2.16,3.94h-1.5l-2.11-3.94h1.46Z"/><path class="cls-1" d="M615.23,88.27c-.08-.26-.19-.49-.33-.7s-.3-.38-.49-.53-.41-.26-.65-.33c-.24-.08-.51-.11-.8-.11-.49,0-.93,.13-1.33,.38-.39,.25-.71,.62-.94,1.11-.23,.49-.34,1.08-.34,1.79s.12,1.31,.35,1.79c.23,.49,.54,.86,.95,1.11,.4,.25,.86,.38,1.37,.38,.47,0,.89-.1,1.24-.29s.63-.47,.82-.82c.2-.35,.29-.77,.29-1.25l.34,.06h-2.5v-1.09h3.43v.99c0,.73-.16,1.37-.47,1.91-.31,.54-.74,.95-1.29,1.25-.55,.29-1.17,.44-1.88,.44-.79,0-1.48-.18-2.08-.54-.6-.36-1.06-.88-1.39-1.55-.33-.67-.5-1.46-.5-2.38,0-.7,.1-1.32,.29-1.88s.47-1.02,.82-1.41c.35-.39,.76-.68,1.24-.89,.48-.21,1-.31,1.56-.31,.47,0,.91,.07,1.32,.21,.41,.14,.77,.34,1.09,.59,.32,.26,.58,.56,.79,.91,.21,.35,.35,.74,.43,1.17h-1.35Z"/><path class="cls-1" d="M618.31,94.24v-8.73h3.2c.62,0,1.13,.1,1.54,.3s.71,.48,.91,.82c.2,.35,.3,.73,.3,1.17,0,.36-.07,.67-.2,.92-.13,.25-.31,.45-.54,.6-.22,.15-.47,.26-.73,.33v.08c.29,.01,.57,.11,.85,.28,.28,.17,.51,.42,.69,.73,.18,.32,.27,.7,.27,1.15s-.1,.85-.31,1.2c-.21,.35-.53,.63-.97,.84s-.99,.31-1.67,.31h-3.34Zm1.32-4.95h1.76c.3,0,.56-.06,.8-.17s.43-.27,.57-.48,.21-.45,.21-.73c0-.36-.13-.66-.38-.91s-.64-.37-1.16-.37h-1.8v2.65Zm0,3.82h1.9c.63,0,1.08-.12,1.36-.37,.27-.24,.41-.55,.41-.92,0-.28-.07-.53-.21-.76-.14-.23-.34-.41-.59-.55-.26-.14-.56-.21-.91-.21h-1.95v2.8Z"/><path class="cls-1" d="M629.34,94.24v-8.73h1.32v3.79h4.35v-3.79h1.32v8.73h-1.32v-3.81h-4.35v3.81h-1.32Z"/><path class="cls-1" d="M642.29,91.53v-3.83h1.28v6.55h-1.25v-1.13h-.07c-.15,.35-.39,.64-.72,.87s-.74,.35-1.23,.35c-.42,0-.79-.09-1.11-.28-.32-.19-.58-.46-.76-.83-.18-.37-.27-.82-.27-1.36v-4.16h1.27v4.01c0,.45,.12,.8,.37,1.07,.25,.26,.57,.4,.96,.4,.24,0,.48-.06,.71-.18s.43-.3,.59-.54c.16-.24,.24-.55,.23-.92Z"/><path class="cls-1" d="M648.1,94.37c-.64,0-1.2-.14-1.66-.42-.46-.28-.82-.67-1.07-1.17-.25-.5-.38-1.1-.38-1.78s.13-1.26,.38-1.77c.25-.51,.6-.91,1.06-1.2s.98-.43,1.59-.43c.37,0,.73,.06,1.07,.18s.66,.31,.93,.58c.28,.26,.49,.6,.65,1.02s.24,.92,.24,1.51v.45h-5.2v-.95h3.95c0-.33-.07-.63-.2-.89-.14-.26-.33-.46-.57-.62-.25-.15-.53-.23-.86-.23-.36,0-.67,.09-.94,.26s-.47,.4-.61,.68c-.14,.28-.21,.58-.21,.91v.75c0,.44,.08,.81,.23,1.12,.16,.31,.37,.54,.65,.7s.6,.24,.98,.24c.24,0,.46-.03,.66-.1,.2-.07,.37-.17,.52-.31,.14-.14,.25-.31,.33-.52l1.21,.22c-.1,.36-.27,.67-.52,.93-.25,.27-.56,.47-.93,.62-.37,.15-.8,.22-1.28,.22Z"/><path class="cls-1" d="M601.58,112.24v-8.73h3.11c.68,0,1.24,.12,1.68,.35,.45,.23,.78,.55,1,.96,.22,.41,.33,.88,.33,1.42s-.11,1-.33,1.41c-.22,.4-.56,.72-1.01,.94-.45,.22-1.01,.34-1.69,.34h-2.36v-1.13h2.24c.43,0,.77-.06,1.04-.18s.46-.3,.59-.53c.12-.23,.19-.51,.19-.84s-.06-.62-.19-.86c-.13-.24-.32-.43-.59-.56-.27-.13-.62-.19-1.05-.19h-1.65v7.6h-1.32Zm4.31-3.94l2.16,3.94h-1.5l-2.11-3.94h1.46Z"/><path class="cls-1" d="M615.23,106.27c-.08-.26-.19-.49-.33-.7s-.3-.38-.49-.53-.41-.26-.65-.33c-.24-.08-.51-.11-.8-.11-.49,0-.93,.13-1.33,.38-.39,.25-.71,.62-.94,1.11-.23,.49-.34,1.08-.34,1.79s.12,1.31,.35,1.79c.23,.49,.54,.86,.95,1.11,.4,.25,.86,.38,1.37,.38,.47,0,.89-.1,1.24-.29s.63-.47,.82-.82c.2-.35,.29-.77,.29-1.25l.34,.06h-2.5v-1.09h3.43v.99c0,.73-.16,1.37-.47,1.91-.31,.54-.74,.95-1.29,1.25-.55,.29-1.17,.44-1.88,.44-.79,0-1.48-.18-2.08-.54-.6-.36-1.06-.88-1.39-1.55-.33-.67-.5-1.46-.5-2.38,0-.7,.1-1.32,.29-1.88s.47-1.02,.82-1.41c.35-.39,.76-.68,1.24-.89,.48-.21,1-.31,1.56-.31,.47,0,.91,.07,1.32,.21,.41,.14,.77,.34,1.09,.59,.32,.26,.58,.56,.79,.91,.21,.35,.35,.74,.43,1.17h-1.35Z"/><path class="cls-1" d="M618.31,112.24v-8.73h3.2c.62,0,1.13,.1,1.54,.3s.71,.48,.91,.82c.2,.35,.3,.73,.3,1.17,0,.36-.07,.67-.2,.92-.13,.25-.31,.45-.54,.6-.22,.15-.47,.26-.73,.33v.08c.29,.01,.57,.11,.85,.28,.28,.17,.51,.42,.69,.73,.18,.32,.27,.7,.27,1.15s-.1,.85-.31,1.2c-.21,.35-.53,.63-.97,.84s-.99,.31-1.67,.31h-3.34Zm1.32-4.95h1.76c.3,0,.56-.06,.8-.17s.43-.27,.57-.48,.21-.45,.21-.73c0-.36-.13-.66-.38-.91s-.64-.37-1.16-.37h-1.8v2.65Zm0,3.82h1.9c.63,0,1.08-.12,1.36-.37,.27-.24,.41-.55,.41-.92,0-.28-.07-.53-.21-.76-.14-.23-.34-.41-.59-.55-.26-.14-.56-.21-.91-.21h-1.95v2.8Z"/><path class="cls-1" d="M636.92,107.88c0,.93-.17,1.73-.51,2.4-.34,.67-.81,1.18-1.4,1.54-.59,.36-1.26,.54-2.02,.54s-1.43-.18-2.02-.54c-.59-.36-1.06-.87-1.4-1.54-.34-.67-.51-1.47-.51-2.4s.17-1.73,.51-2.4,.81-1.18,1.4-1.54c.59-.36,1.27-.54,2.02-.54s1.43,.18,2.02,.54c.59,.36,1.06,.87,1.4,1.54s.51,1.47,.51,2.4Zm-1.3,0c0-.71-.11-1.31-.34-1.8s-.54-.86-.94-1.11c-.4-.25-.84-.38-1.34-.38s-.95,.12-1.35,.38c-.39,.25-.71,.62-.94,1.11-.23,.49-.34,1.09-.34,1.8s.11,1.31,.34,1.8c.23,.49,.54,.86,.94,1.11,.4,.25,.84,.38,1.35,.38s.95-.13,1.34-.38c.4-.25,.71-.62,.94-1.11s.34-1.09,.34-1.8Z"/><path class="cls-1" d="M639.73,108.36v3.89h-1.27v-6.55h1.22v1.07h.08c.15-.35,.39-.62,.71-.83s.73-.32,1.22-.32c.45,0,.84,.09,1.17,.28,.34,.19,.6,.46,.78,.83,.18,.37,.28,.82,.28,1.36v4.16h-1.27v-4.01c0-.47-.12-.85-.37-1.11s-.59-.4-1.02-.4c-.29,0-.56,.06-.79,.19s-.41,.31-.54,.56c-.13,.25-.2,.54-.2,.89Z"/><path class="cls-1" d="M648.94,103.11l-2.81,10.45h-1.14l2.81-10.45h1.14Z"/><path class="cls-1" d="M657.71,107.88c0,.93-.17,1.73-.51,2.4-.34,.67-.81,1.18-1.4,1.54-.59,.36-1.26,.54-2.02,.54s-1.43-.18-2.02-.54c-.59-.36-1.06-.87-1.4-1.54-.34-.67-.51-1.47-.51-2.4s.17-1.73,.51-2.4,.81-1.18,1.4-1.54c.59-.36,1.27-.54,2.02-.54s1.42,.18,2.02,.54c.59,.36,1.06,.87,1.4,1.54s.51,1.47,.51,2.4Zm-1.3,0c0-.71-.11-1.31-.34-1.8-.23-.49-.54-.86-.94-1.11-.4-.25-.84-.38-1.34-.38s-.95,.12-1.35,.38c-.4,.25-.71,.62-.94,1.11s-.34,1.09-.34,1.8,.11,1.31,.34,1.8,.54,.86,.94,1.11c.39,.25,.84,.38,1.35,.38s.95-.13,1.34-.38c.4-.25,.71-.62,.94-1.11,.23-.49,.34-1.09,.34-1.8Z"/><path class="cls-1" d="M662.36,105.7v1.02h-3.7v-1.02h3.7Zm-2.68,6.55v-7.3c0-.41,.09-.75,.27-1.02,.18-.27,.42-.47,.71-.61,.3-.13,.62-.2,.96-.2,.26,0,.47,.02,.66,.06,.18,.04,.32,.08,.41,.11l-.3,1.03c-.06-.02-.14-.04-.23-.06s-.21-.04-.34-.04c-.31,0-.53,.08-.66,.23-.13,.15-.2,.38-.2,.66v7.13h-1.27Z"/><path class="cls-1" d="M666.79,105.7v1.02h-3.7v-1.02h3.7Zm-2.68,6.55v-7.3c0-.41,.09-.75,.27-1.02,.18-.27,.42-.47,.71-.61,.29-.13,.62-.2,.96-.2,.26,0,.47,.02,.66,.06s.32,.08,.4,.11l-.3,1.03c-.06-.02-.14-.04-.23-.06s-.21-.04-.34-.04c-.31,0-.53,.08-.66,.23-.13,.15-.2,.38-.2,.66v7.13h-1.27Z"/></g><g><path class="cls-1" d="M587.45,76.24c-.61,0-1.17-.11-1.7-.34s-.99-.54-1.39-.94c-.4-.4-.71-.86-.94-1.39-.22-.53-.34-1.09-.34-1.69s.11-1.17,.34-1.69c.23-.53,.54-.99,.94-1.39,.4-.4,.86-.71,1.39-.94s1.09-.34,1.7-.34v1.1c-.45,0-.87,.08-1.27,.25s-.74,.4-1.04,.7-.53,.64-.7,1.04c-.17,.39-.25,.82-.25,1.27s.08,.87,.25,1.27c.17,.39,.4,.74,.7,1.04,.3,.3,.64,.53,1.04,.7,.39,.17,.82,.25,1.27,.25s.87-.08,1.27-.25,.74-.4,1.04-.7c.3-.3,.53-.64,.7-1.04,.17-.4,.25-.82,.25-1.27h1.1c0,.6-.11,1.17-.34,1.69-.23,.53-.54,.99-.94,1.39s-.86,.71-1.39,.94c-.53,.23-1.09,.34-1.69,.34Zm-.25-5.45v-5.3l2.67,2.65-2.67,2.65Z"/><path class="cls-1" d="M587.45,86.62v-1.1c.61,0,1.17,.11,1.7,.34,.53,.23,.99,.54,1.39,.94,.4,.4,.71,.87,.94,1.39,.23,.53,.34,1.09,.34,1.69s-.11,1.17-.34,1.69c-.22,.53-.54,.99-.94,1.39-.4,.4-.87,.71-1.39,.94-.53,.23-1.09,.34-1.7,.34s-1.17-.11-1.69-.34c-.53-.23-.99-.54-1.39-.94s-.71-.86-.94-1.39c-.23-.53-.34-1.09-.34-1.69h1.1c0,.45,.08,.87,.25,1.27,.17,.39,.4,.74,.7,1.04,.3,.3,.65,.53,1.04,.7s.82,.25,1.27,.25,.88-.08,1.27-.25c.4-.17,.74-.4,1.04-.7,.3-.3,.53-.64,.7-1.04,.17-.39,.25-.82,.25-1.27s-.08-.88-.25-1.27c-.17-.39-.4-.74-.7-1.04s-.64-.53-1.04-.7-.82-.25-1.27-.25Zm.25,2.18l-2.67-2.65,2.67-2.65v5.3Z"/><path class="cls-1" d="M588,103.51v6.7l2.55-2.56,.78,.77-3.88,3.87-3.87-3.87,.76-.77,2.56,2.56v-6.7h1.11Z"/></g></g></g></svg>