<?xml version="1.0" encoding="UTF-8"?><svg id="Layer_1" xmlns="http://www.w3.org/2000/svg" viewBox="0 0 900 480"><defs><style>.cls-1{fill:#999;}.cls-2{fill:#39b54a;stroke:#006837;}.cls-2,.cls-3{stroke-miterlimit:10;stroke-width:2px;}.cls-3{fill:none;stroke:#999;}</style></defs><g><polygon class="cls-3" points="329.36 152.92 569.47 152.92 581.56 166.72 581.56 421.64 569.07 433.73 330.57 433.73 318.88 422.05 318.88 165.41 329.36 152.92"/><circle class="cls-3" cx="536.24" cy="210.58" r="24.58"/><circle class="cls-3" cx="364.57" cy="210.58" r="24.58"/><polyline class="cls-3" points="318.88 165.41 326.94 174.68 572.29 174.68 580.91 166.07"/><polyline class="cls-3" points="569.47 152.92 572.29 174.68 572.29 418.55 565.98 424.87 335.81 424.87 327.65 416.71 326.94 174.68 329.36 152.92"/><rect class="cls-2" x="510.79" y="249.65" width="50.88" height="50.88" rx="8.01" ry="8.01"/><rect class="cls-3" x="453.28" y="249.65" width="50.88" height="50.88" rx="8.01" ry="8.01"/><rect class="cls-3" x="395.77" y="249.65" width="50.88" height="50.88" rx="8.01" ry="8.01"/><rect class="cls-3" x="338.26" y="249.65" width="50.88" height="50.88" rx="8.01" ry="8.01"/><rect class="cls-3" x="510.79" y="306.97" width="50.88" height="50.88" rx="8.01" ry="8.01"/><rect class="cls-3" x="453.28" y="306.97" width="50.88" height="50.88" rx="8.01" ry="8.01"/><rect class="cls-3" x="395.77" y="306.97" width="50.88" height="50.88" rx="8.01" ry="8.01"/><rect class="cls-3" x="338.26" y="306.97" width="50.88" height="50.88" rx="8.01" ry="8.01"/><rect class="cls-3" x="510.79" y="364.29" width="50.88" height="50.88" rx="8.01" ry="8.01"/><rect class="cls-3" x="453.28" y="364.29" width="50.88" height="50.88" rx="8.01" ry="8.01"/><rect class="cls-3" x="395.77" y="364.29" width="50.88" height="50.88" rx="8.01" ry="8.01"/><rect class="cls-3" x="338.26" y="364.29" width="50.88" height="50.88" rx="8.01" ry="8.01"/><line class="cls-3" x1="572.29" y1="418.55" x2="581.56" y2="421.64"/><line class="cls-3" x1="565.98" y1="424.87" x2="569.07" y2="433.73"/><line class="cls-3" x1="318.88" y1="422.05" x2="327.65" y2="416.71"/><line class="cls-3" x1="335.81" y1="424.87" x2="330.57" y2="433.73"/></g><g><g><path class="cls-3" d="M439.35,83.64h21.3c3.05,0,5.53,2.48,5.53,5.53v28.19c0,.9-.73,1.62-1.62,1.62h-29.12c-.9,0-1.62-.73-1.62-1.62v-28.19c0-3.05,2.48-5.53,5.53-5.53Z"/><path class="cls-3" d="M445.98,68.88h8.04c.89,0,1.61,.72,1.61,1.61v13.04c0,.06-.05,.12-.12,.12h-11.02c-.06,0-.12-.05-.12-.12v-13.04c0-.89,.72-1.61,1.61-1.61Z"/><rect class="cls-3" x="439.63" y="118.99" width="20.75" height="13.92"/></g><g><line class="cls-3" x1="446.9" y1="26.26" x2="446.9" y2="68.88"/><line class="cls-3" x1="453.1" y1="26.26" x2="453.1" y2="68.88"/></g></g><g><line class="cls-3" x1="604.29" y1="275.1" x2="662.98" y2="275.1"/><polygon class="cls-1" points="610.92 283.28 612.28 281.81 605.06 275.1 612.28 268.38 610.92 266.92 602.12 275.1 610.92 283.28"/></g><g><line class="cls-3" x1="395.77" y1="87.49" x2="395.77" y2="28.8"/><polygon class="cls-1" points="403.95 80.86 402.49 79.5 395.78 86.72 389.06 79.5 387.6 80.86 395.78 89.66 403.95 80.86"/></g><circle class="cls-3" cx="361.66" cy="54.53" r="16.36"/><path class="cls-1" d="M357.56,60.14v-1.43l4.43-4.59c.47-.5,.86-.94,1.17-1.31,.31-.38,.54-.74,.69-1.08,.15-.34,.23-.7,.23-1.09,0-.43-.1-.81-.31-1.13-.2-.32-.48-.56-.84-.73-.35-.17-.75-.26-1.2-.26-.47,0-.88,.1-1.23,.29s-.62,.46-.81,.81c-.19,.35-.28,.76-.28,1.23h-1.89c0-.8,.18-1.49,.55-2.09,.37-.6,.87-1.06,1.51-1.39s1.37-.5,2.18-.5,1.55,.16,2.18,.49c.63,.33,1.12,.77,1.47,1.33,.35,.56,.53,1.19,.53,1.9,0,.49-.09,.96-.27,1.43-.18,.46-.5,.98-.94,1.55-.45,.57-1.07,1.26-1.87,2.07l-2.6,2.72v.1h5.89v1.69h-8.62Z"/><g><circle class="cls-3" cx="636.93" cy="238.72" r="16.36"/><path class="cls-1" d="M638.77,232v13.09h-1.98v-11.11h-.08l-3.13,2.05v-1.89l3.27-2.13h1.92Z"/></g></svg>