<?xml version="1.0" encoding="UTF-8"?><svg id="Layer_1" xmlns="http://www.w3.org/2000/svg" viewBox="0 0 900 420"><defs><style>.cls-1{font-size:18px;}.cls-1,.cls-2{fill:#999;font-family:Inter-Medium, Inter;font-variation-settings:'wght' 500, 'slnt' 0;font-weight:500;}.cls-2{font-size:12px;}.cls-3{stroke-width:2px;}.cls-3,.cls-4{fill:none;stroke:#999;stroke-miterlimit:10;}</style></defs><g><circle class="cls-3" cx="536.27" cy="91.41" r="24.58"/><circle class="cls-3" cx="364.6" cy="91.41" r="24.58"/><rect class="cls-3" x="510.82" y="130.48" width="50.88" height="50.88" rx="8.01" ry="8.01"/><rect class="cls-3" x="453.31" y="130.48" width="50.88" height="50.88" rx="8.01" ry="8.01"/><rect class="cls-3" x="395.8" y="130.48" width="50.88" height="50.88" rx="8.01" ry="8.01"/><rect class="cls-3" x="338.29" y="130.48" width="50.88" height="50.88" rx="8.01" ry="8.01"/><rect class="cls-3" x="510.82" y="187.8" width="50.88" height="50.88" rx="8.01" ry="8.01"/><rect class="cls-3" x="453.31" y="187.8" width="50.88" height="50.88" rx="8.01" ry="8.01"/><rect class="cls-3" x="395.8" y="187.8" width="50.88" height="50.88" rx="8.01" ry="8.01"/><rect class="cls-3" x="338.29" y="187.8" width="50.88" height="50.88" rx="8.01" ry="8.01"/><rect class="cls-3" x="510.82" y="245.11" width="50.88" height="50.88" rx="8.01" ry="8.01"/><rect class="cls-3" x="453.31" y="245.11" width="50.88" height="50.88" rx="8.01" ry="8.01"/><rect class="cls-3" x="395.8" y="245.11" width="50.88" height="50.88" rx="8.01" ry="8.01"/><rect class="cls-3" x="338.29" y="245.11" width="50.88" height="50.88" rx="8.01" ry="8.01"/></g><text class="cls-1" transform="translate(359.55 277.23)"><tspan x="0" y="0">1</tspan></text><text class="cls-1" transform="translate(415.73 277.23)"><tspan x="0" y="0">2</tspan></text><text class="cls-1" transform="translate(472.96 277.23)"><tspan x="0" y="0">3</tspan></text><text class="cls-2" transform="translate(404.2 363.52)"><tspan x="0" y="0">Default Keymap</tspan></text><text class="cls-1" transform="translate(530.27 277.23)"><tspan x="0" y="0">+</tspan></text><text class="cls-1" transform="translate(357.91 219.78)"><tspan x="0" y="0">4</tspan></text><text class="cls-1" transform="translate(415.66 219.78)"><tspan x="0" y="0">5</tspan></text><text class="cls-1" transform="translate(473.03 219.78)"><tspan x="0" y="0">6</tspan></text><text class="cls-1" transform="translate(532.1 219.78)"><tspan x="0" y="0">-</tspan></text><text class="cls-1" transform="translate(358.59 162.34)"><tspan x="0" y="0">7</tspan></text><text class="cls-1" transform="translate(415.56 162.34)"><tspan x="0" y="0">8</tspan></text><text class="cls-1" transform="translate(473.03 162.34)"><tspan x="0" y="0">9</tspan></text><text class="cls-1" transform="translate(531.57 162.34)"><tspan x="0" y="0">*</tspan></text><rect class="cls-4" x="388.09" y="348.2" width="122.73" height="22.99" rx="11.49" ry="11.49"/><g><g><text class="cls-2" transform="translate(237.93 76.24)"><tspan x="0" y="0">Volume Up</tspan><tspan x="-16.5" y="18">Volume Down</tspan><tspan x="32.83" y="36">Mute</tspan></text><text class="cls-2" transform="translate(309 76.24)"><tspan x="0" y="0">↻ </tspan><tspan x="0" y="18">↺</tspan><tspan x="0" y="36">↓</tspan></text></g><g><text class="cls-2" transform="translate(600.62 76.24)"><tspan x="0" y="0">RGB Hue</tspan><tspan x="0" y="18">RGB Hue</tspan><tspan x="0" y="36">RGB On/Off</tspan></text><text class="cls-2" transform="translate(581.72 76.24)"><tspan x="0" y="0">↻ </tspan><tspan x="0" y="18">↺</tspan><tspan x="0" y="36">↓</tspan></text></g></g></svg>